<?xml version="1.0" encoding="UTF-8"?>
<svg width="400px" height="400px" viewBox="0 0 400 400" version="1.1" xmlns="http://www.w3.org/2000/svg" xmlns:xlink="http://www.w3.org/1999/xlink">
    <title>m</title>
    <g id="m" stroke="none" stroke-width="1" fill="none" fill-rule="evenodd">
        <path d="M73.92,321 L73.92,294 L84,321 L88.56,321 L98.7,294 L98.7,321 L109.02,321 L109.02,280.98 L94.68,280.98 L86.28,303.66 L77.94,280.98 L63.6,280.98 L63.6,321 L73.92,321 Z M145.56,321 L145.56,312.3 L126.54,312.3 L126.54,305.1 L145.14,305.1 L145.14,296.34 L126.54,296.34 L126.54,289.68 L145.56,289.68 L145.56,280.98 L116.22,280.98 L116.22,321 L145.56,321 Z M166.44,321.72 C177.18,321.72 183.12,316.38 183.12,308.34 C183.12,300.639 176.5308,298.09665 170.500815,296.659725 L169.970391,296.535703 C169.089375,296.333438 168.225,296.1525 167.4,295.98 C162.96,295.14 160.5,294.42 160.5,292.32 C160.5,290.58 161.82,289.2 165.24,289.2 C168.78,289.2 173.16,290.58 176.52,293.34 L182.16,285.96 C177.9,282.3 172.32,280.38 165.9,280.38 C155.64,280.38 149.94,286.2 149.94,292.92 C149.94,302.4 159.18,304.08 165.78,305.4 C170.04,306.3 172.62,307.2 172.62,309.48 C172.62,311.4 170.46,312.9 166.92,312.9 C161.46,312.9 157.02,310.5 154.14,307.62 L148.68,315.36 C152.7,319.2 158.34,321.72 166.44,321.72 Z M202.8,321.72 C213.54,321.72 219.48,316.38 219.48,308.34 C219.48,300.639 212.8908,298.09665 206.860815,296.659725 L206.330391,296.535703 C205.449375,296.333438 204.585,296.1525 203.76,295.98 C199.32,295.14 196.86,294.42 196.86,292.32 C196.86,290.58 198.18,289.2 201.6,289.2 C205.14,289.2 209.52,290.58 212.88,293.34 L218.52,285.96 C214.26,282.3 208.68,280.38 202.26,280.38 C192,280.38 186.3,286.2 186.3,292.92 C186.3,302.4 195.54,304.08 202.14,305.4 C206.4,306.3 208.98,307.2 208.98,309.48 C208.98,311.4 206.82,312.9 203.28,312.9 C197.82,312.9 193.38,310.5 190.5,307.62 L185.04,315.36 C189.06,319.2 194.7,321.72 202.8,321.72 Z M231,321 L233.04,314.94 L249.66,314.94 L251.7,321 L262.92,321 L247.8,280.98 L234.84,280.98 L219.78,321 L231,321 Z M246.96,306.24 L235.74,306.24 L241.32,289.98 L246.96,306.24 Z M283.56,321.72 C291.12,321.72 296.94,318.66 301.26,313.92 L301.26,298.26 L281.94,298.26 L281.94,306.84 L291.12,306.84 L291.12,310.2 C289.5,311.52 286.68,312.6 283.56,312.6 C277.02,312.6 272.4,307.56 272.4,301.02 C272.4,294.48 277.02,289.44 283.56,289.44 C287.34,289.44 290.4,291.54 292.02,294.18 L300.66,289.62 C297.72,284.64 292.32,280.32 283.56,280.32 C271.62,280.32 261.9,288.3 261.9,301.02 C261.9,313.74 271.62,321.72 283.56,321.72 Z M336.66,321 L336.66,312.3 L317.64,312.3 L317.64,305.1 L336.24,305.1 L336.24,296.34 L317.64,296.34 L317.64,289.68 L336.66,289.68 L336.66,280.98 L307.32,280.98 L307.32,321 L336.66,321 Z" id="MESSAGE" fill="#FFFFFF" fill-rule="nonzero"></path>
        <path d="M273.92,118 L273.92,91 L284,118 L288.56,118 L298.7,91 L298.7,118 L309.02,118 L309.02,77.98 L294.68,77.98 L286.28,100.66 L277.94,77.98 L263.6,77.98 L263.6,118 L273.92,118 Z M345.56,118 L345.56,109.3 L326.54,109.3 L326.54,102.1 L345.14,102.1 L345.14,93.34 L326.54,93.34 L326.54,86.68 L345.56,86.68 L345.56,77.98 L316.22,77.98 L316.22,118 L345.56,118 Z M366.44,118.72 C377.18,118.72 383.12,113.38 383.12,105.34 C383.12,97.639 376.5308,95.09665 370.500815,93.659725 L369.970391,93.5357031 C369.089375,93.3334375 368.225,93.1525 367.4,92.98 C362.96,92.14 360.5,91.42 360.5,89.32 C360.5,87.58 361.82,86.2 365.24,86.2 C368.78,86.2 373.16,87.58 376.52,90.34 L382.16,82.96 C377.9,79.3 372.32,77.38 365.9,77.38 C355.64,77.38 349.94,83.2 349.94,89.92 C349.94,99.4 359.18,101.08 365.78,102.4 C370.04,103.3 372.62,104.2 372.62,106.48 C372.62,108.4 370.46,109.9 366.92,109.9 C361.46,109.9 357.02,107.5 354.14,104.62 L348.68,112.36 C352.7,116.2 358.34,118.72 366.44,118.72 Z M402.8,118.72 C413.54,118.72 419.48,113.38 419.48,105.34 C419.48,97.639 412.8908,95.09665 406.860815,93.659725 L406.330391,93.5357031 C405.449375,93.3334375 404.585,93.1525 403.76,92.98 C399.32,92.14 396.86,91.42 396.86,89.32 C396.86,87.58 398.18,86.2 401.6,86.2 C405.14,86.2 409.52,87.58 412.88,90.34 L418.52,82.96 C414.26,79.3 408.68,77.38 402.26,77.38 C392,77.38 386.3,83.2 386.3,89.92 C386.3,99.4 395.54,101.08 402.14,102.4 C406.4,103.3 408.98,104.2 408.98,106.48 C408.98,108.4 406.82,109.9 403.28,109.9 C397.82,109.9 393.38,107.5 390.5,104.62 L385.04,112.36 C389.06,116.2 394.7,118.72 402.8,118.72 Z M431,118 L433.04,111.94 L449.66,111.94 L451.7,118 L462.92,118 L447.8,77.98 L434.84,77.98 L419.78,118 L431,118 Z M446.96,103.24 L435.74,103.24 L441.32,86.98 L446.96,103.24 Z M483.56,118.72 C491.12,118.72 496.94,115.66 501.26,110.92 L501.26,95.26 L481.94,95.26 L481.94,103.84 L491.12,103.84 L491.12,107.2 C489.5,108.52 486.68,109.6 483.56,109.6 C477.02,109.6 472.4,104.56 472.4,98.02 C472.4,91.48 477.02,86.44 483.56,86.44 C487.34,86.44 490.4,88.54 492.02,91.18 L500.66,86.62 C497.72,81.64 492.32,77.32 483.56,77.32 C471.62,77.32 461.9,85.3 461.9,98.02 C461.9,110.74 471.62,118.72 483.56,118.72 Z M536.66,118 L536.66,109.3 L517.64,109.3 L517.64,102.1 L536.24,102.1 L536.24,93.34 L517.64,93.34 L517.64,86.68 L536.66,86.68 L536.66,77.98 L507.32,77.98 L507.32,118 L536.66,118 Z" id="MESSAGE-Copy" fill="#FFFFFF" fill-rule="nonzero"></path>
        <path d="M-126.08,118 L-126.08,91 L-116,118 L-111.44,118 L-101.3,91 L-101.3,118 L-90.98,118 L-90.98,77.98 L-105.32,77.98 L-113.72,100.66 L-122.06,77.98 L-136.4,77.98 L-136.4,118 L-126.08,118 Z M-54.44,118 L-54.44,109.3 L-73.46,109.3 L-73.46,102.1 L-54.86,102.1 L-54.86,93.34 L-73.46,93.34 L-73.46,86.68 L-54.44,86.68 L-54.44,77.98 L-83.78,77.98 L-83.78,118 L-54.44,118 Z M-33.56,118.72 C-22.82,118.72 -16.88,113.38 -16.88,105.34 C-16.88,97.639 -23.4692,95.09665 -29.499185,93.659725 L-30.0296094,93.5357031 C-30.910625,93.3334375 -31.775,93.1525 -32.6,92.98 C-37.04,92.14 -39.5,91.42 -39.5,89.32 C-39.5,87.58 -38.18,86.2 -34.76,86.2 C-31.22,86.2 -26.84,87.58 -23.48,90.34 L-17.84,82.96 C-22.1,79.3 -27.68,77.38 -34.1,77.38 C-44.36,77.38 -50.06,83.2 -50.06,89.92 C-50.06,99.4 -40.82,101.08 -34.22,102.4 C-29.96,103.3 -27.38,104.2 -27.38,106.48 C-27.38,108.4 -29.54,109.9 -33.08,109.9 C-38.54,109.9 -42.98,107.5 -45.86,104.62 L-51.32,112.36 C-47.3,116.2 -41.66,118.72 -33.56,118.72 Z M2.8,118.72 C13.54,118.72 19.48,113.38 19.48,105.34 C19.48,97.639 12.8908,95.09665 6.860815,93.659725 L6.33039063,93.5357031 C5.449375,93.3334375 4.585,93.1525 3.76,92.98 C-0.68,92.14 -3.14,91.42 -3.14,89.32 C-3.14,87.58 -1.82,86.2 1.6,86.2 C5.14,86.2 9.52,87.58 12.88,90.34 L18.52,82.96 C14.26,79.3 8.68,77.38 2.26,77.38 C-8,77.38 -13.7,83.2 -13.7,89.92 C-13.7,99.4 -4.46,101.08 2.14,102.4 C6.4,103.3 8.98,104.2 8.98,106.48 C8.98,108.4 6.82,109.9 3.28,109.9 C-2.18,109.9 -6.62,107.5 -9.5,104.62 L-14.96,112.36 C-10.94,116.2 -5.3,118.72 2.8,118.72 Z M31,118 L33.04,111.94 L49.66,111.94 L51.7,118 L62.92,118 L47.8,77.98 L34.84,77.98 L19.78,118 L31,118 Z M46.96,103.24 L35.74,103.24 L41.32,86.98 L46.96,103.24 Z M83.56,118.72 C91.12,118.72 96.94,115.66 101.26,110.92 L101.26,95.26 L81.94,95.26 L81.94,103.84 L91.12,103.84 L91.12,107.2 C89.5,108.52 86.68,109.6 83.56,109.6 C77.02,109.6 72.4,104.56 72.4,98.02 C72.4,91.48 77.02,86.44 83.56,86.44 C87.34,86.44 90.4,88.54 92.02,91.18 L100.66,86.62 C97.72,81.64 92.32,77.32 83.56,77.32 C71.62,77.32 61.9,85.3 61.9,98.02 C61.9,110.74 71.62,118.72 83.56,118.72 Z M136.66,118 L136.66,109.3 L117.64,109.3 L117.64,102.1 L136.24,102.1 L136.24,93.34 L117.64,93.34 L117.64,86.68 L136.66,86.68 L136.66,77.98 L107.32,77.98 L107.32,118 L136.66,118 Z" id="MESSAGE-Copy-3" fill="#FFFFFF" fill-rule="nonzero"></path>
    </g>
</svg>